<?xml version="1.0" encoding="utf-8"?>
<!-- Generator: Adobe Illustrator 17.0.2, SVG Export Plug-In . SVG Version: 6.00 Build 0)  -->
<!DOCTYPE svg PUBLIC "-//W3C//DTD SVG 1.1//EN" "http://www.w3.org/Graphics/SVG/1.1/DTD/svg11.dtd">
<svg version="1.1" id="Layer_1" xmlns="http://www.w3.org/2000/svg" xmlns:xlink="http://www.w3.org/1999/xlink" x="0px" y="0px"
	 width="18.25px" height="17.917px" viewBox="0 0 18.25 17.917" enable-background="new 0 0 18.25 17.917" xml:space="preserve">
<g>
	<g>
		<path fill="#1B1A17" d="M12.533,7.45c0.216,0.702,0.032,1.408-0.575,2.01c-1.466,1.466-3.687,3.001-5.238,3.872
			c-0.274,0.153-0.58,0.237-0.876,0.237c-0.369,0-0.707-0.132-0.949-0.375c-0.443-0.443-0.501-1.176-0.137-1.825
			c0.87-1.551,2.405-3.771,3.872-5.238c0.443-0.443,0.928-0.665,1.445-0.665c0.185,0,0.369,0.032,0.559,0.09l-0.179,0.749
			c-0.005,0.026-0.005,0.047-0.011,0.074c-0.127-0.047-0.248-0.074-0.369-0.074c-0.29,0-0.57,0.137-0.849,0.422
			C9.209,6.738,9.199,6.754,9.183,6.77l1.066,1.06L9.653,8.431l-1.044-1.05C7.912,8.168,7.231,9.075,6.635,9.945l0.749,0.749
			l-0.596,0.601l-0.628-0.628c-0.248,0.396-0.475,0.77-0.67,1.113c-0.174,0.311-0.174,0.649,0,0.818
			c0.105,0.105,0.253,0.132,0.353,0.132c0.153,0,0.316-0.047,0.464-0.132c0.823-0.459,1.83-1.108,2.811-1.836L8.218,9.861
			l0.596-0.596l0.981,0.981c0.57-0.454,1.108-0.918,1.572-1.382c0.164-0.164,0.586-0.586,0.348-1.229
			c0.016-0.005,0.037-0.005,0.058-0.011L12.533,7.45z M11.224,6.854c-0.1-0.1-0.148-0.253-0.111-0.396l0.512-2.194l0.823,0.19
			l-0.359,1.535l1.535-0.359l0.19,0.823L11.62,6.97c-0.032,0.005-0.063,0.011-0.095,0.011C11.414,6.981,11.304,6.933,11.224,6.854z"
			/>
	</g>
</g>
<g>
	<path fill="#1B1A17" d="M9.167,17.751c-4.871,0-8.834-3.963-8.834-8.834s3.963-8.834,8.834-8.834s8.834,3.963,8.834,8.834
		S14.038,17.751,9.167,17.751z M9.167,0.983c-4.375,0-7.934,3.559-7.934,7.934c0,4.375,3.559,7.934,7.934,7.934
		c4.375,0,7.934-3.559,7.934-7.934C17.1,4.542,13.542,0.983,9.167,0.983z"/>
</g>
</svg>
