<?xml version="1.0" encoding="UTF-8" standalone="no"?>
<!DOCTYPE svg PUBLIC "-//W3C//DTD SVG 1.1//EN"
 "http://www.w3.org/Graphics/SVG/1.1/DTD/svg11.dtd">
<!-- Generated by graphviz version 2.32.0 (20140321.2019)
 -->
<!-- Title: controllers_diagram Pages: 1 -->
<svg width="670pt" height="514pt"
 viewBox="0.00 0.00 669.90 514.00" xmlns="http://www.w3.org/2000/svg" xmlns:xlink="http://www.w3.org/1999/xlink">
<g id="graph0" class="graph" transform="scale(1 1) rotate(0) translate(4 510)">
<title>controllers_diagram</title>
<polygon fill="white" stroke="white" points="-4,5 -4,-510 666.899,-510 666.899,5 -4,5"/>
<!-- _diagram_info -->
<g id="node1" class="node"><title>_diagram_info</title>
<text text-anchor="start" x="463" y="-489" font-family="Times,serif" font-size="13.00">Controllers diagram</text>
<text text-anchor="start" x="463" y="-473.4" font-family="Times,serif" font-size="13.00">Date: Mar 21 2014 &#45; 16:23</text>
<text text-anchor="start" x="463" y="-457.8" font-family="Times,serif" font-size="13.00">Migration version: 20140321195513</text>
<text text-anchor="start" x="463" y="-442.2" font-family="Times,serif" font-size="13.00">Generated by RailRoady 1.1.1</text>
<text text-anchor="start" x="463" y="-426.6" font-family="Times,serif" font-size="13.00">http://railroady.prestonlee.com</text>
</g>
<!-- ApplicationController -->
<g id="node2" class="node"><title>ApplicationController</title>
<path fill="none" stroke="black" d="M164.201,-106.445C164.201,-106.445 279.843,-106.445 279.843,-106.445 285.843,-106.445 291.843,-112.445 291.843,-118.445 291.843,-118.445 291.843,-192.045 291.843,-192.045 291.843,-198.045 285.843,-204.045 279.843,-204.045 279.843,-204.045 164.201,-204.045 164.201,-204.045 158.201,-204.045 152.201,-198.045 152.201,-192.045 152.201,-192.045 152.201,-118.445 152.201,-118.445 152.201,-112.445 158.201,-106.445 164.201,-106.445"/>
<text text-anchor="middle" x="222.022" y="-186.045" font-family="Times,serif" font-size="14.00">ApplicationController</text>
<polyline fill="none" stroke="black" points="152.201,-179.245 291.843,-179.245 "/>
<polyline fill="none" stroke="black" points="152.201,-155.245 291.843,-155.245 "/>
<polyline fill="none" stroke="black" points="152.201,-131.245 291.843,-131.245 "/>
<text text-anchor="start" x="160.201" y="-113.245" font-family="Times,serif" font-size="14.00">_layout</text>
</g>
<!-- DashboardController -->
<g id="node3" class="node"><title>DashboardController</title>
<path fill="none" stroke="black" d="M304.631,-2.16127C304.631,-2.16127 414.825,-2.16127 414.825,-2.16127 420.825,-2.16127 426.825,-8.16127 426.825,-14.1613 426.825,-14.1613 426.825,-87.7613 426.825,-87.7613 426.825,-93.7613 420.825,-99.7613 414.825,-99.7613 414.825,-99.7613 304.631,-99.7613 304.631,-99.7613 298.631,-99.7613 292.631,-93.7613 292.631,-87.7613 292.631,-87.7613 292.631,-14.1613 292.631,-14.1613 292.631,-8.16127 298.631,-2.16127 304.631,-2.16127"/>
<text text-anchor="middle" x="359.728" y="-81.7613" font-family="Times,serif" font-size="14.00">DashboardController</text>
<polyline fill="none" stroke="black" points="292.631,-74.9613 426.825,-74.9613 "/>
<polyline fill="none" stroke="black" points="292.631,-50.9613 426.825,-50.9613 "/>
<polyline fill="none" stroke="black" points="292.631,-26.9613 426.825,-26.9613 "/>
<text text-anchor="start" x="300.631" y="-8.96127" font-family="Times,serif" font-size="14.00">_layout</text>
</g>
<!-- ApplicationController&#45;&gt;DashboardController -->
<g id="edge1" class="edge"><title>ApplicationController&#45;&gt;DashboardController</title>
<path fill="none" stroke="black" d="M286.843,-106.157C289.633,-104.044 292.432,-101.924 295.222,-99.8114"/>
</g>
<!-- EatablesController -->
<g id="node4" class="node"><title>EatablesController</title>
<path fill="none" stroke="black" d="M36.0956,-0.5C36.0956,-0.5 133.061,-0.5 133.061,-0.5 139.061,-0.5 145.061,-6.5 145.061,-12.5 145.061,-12.5 145.061,-86.9 145.061,-86.9 145.061,-92.9 139.061,-98.9 133.061,-98.9 133.061,-98.9 36.0956,-98.9 36.0956,-98.9 30.0956,-98.9 24.0956,-92.9 24.0956,-86.9 24.0956,-86.9 24.0956,-12.5 24.0956,-12.5 24.0956,-6.5 30.0956,-0.5 36.0956,-0.5"/>
<text text-anchor="middle" x="84.5785" y="-80.9" font-family="Times,serif" font-size="14.00">EatablesController</text>
<polyline fill="none" stroke="black" points="24.0956,-74.1 145.061,-74.1 "/>
<text text-anchor="start" x="32.0956" y="-56.1" font-family="Times,serif" font-size="14.00">index</text>
<polyline fill="none" stroke="black" points="24.0956,-49.3 145.061,-49.3 "/>
<polyline fill="none" stroke="black" points="24.0956,-25.3 145.061,-25.3 "/>
<text text-anchor="start" x="32.0956" y="-7.3" font-family="Times,serif" font-size="14.00">_layout</text>
</g>
<!-- ApplicationController&#45;&gt;EatablesController -->
<g id="edge2" class="edge"><title>ApplicationController&#45;&gt;EatablesController</title>
<path fill="none" stroke="black" d="M158.129,-106.181C153.782,-102.843 149.41,-99.4854 145.082,-96.1618"/>
</g>
<!-- FoodsController -->
<g id="node5" class="node"><title>FoodsController</title>
<path fill="none" stroke="black" d="M12,-215.908C12,-215.908 95.7793,-215.908 95.7793,-215.908 101.779,-215.908 107.779,-221.908 107.779,-227.908 107.779,-227.908 107.779,-335.908 107.779,-335.908 107.779,-341.908 101.779,-347.908 95.7793,-347.908 95.7793,-347.908 12,-347.908 12,-347.908 6,-347.908 0,-341.908 0,-335.908 0,-335.908 0,-227.908 0,-227.908 0,-221.908 6,-215.908 12,-215.908"/>
<text text-anchor="middle" x="53.8896" y="-329.908" font-family="Times,serif" font-size="14.00">FoodsController</text>
<polyline fill="none" stroke="black" points="0,-323.108 107.779,-323.108 "/>
<text text-anchor="start" x="8" y="-305.108" font-family="Times,serif" font-size="14.00">create</text>
<text text-anchor="start" x="8" y="-288.308" font-family="Times,serif" font-size="14.00">index</text>
<text text-anchor="start" x="8" y="-271.508" font-family="Times,serif" font-size="14.00">new</text>
<polyline fill="none" stroke="black" points="0,-264.708 107.779,-264.708 "/>
<polyline fill="none" stroke="black" points="0,-240.708 107.779,-240.708 "/>
<text text-anchor="start" x="8" y="-222.708" font-family="Times,serif" font-size="14.00">_layout</text>
</g>
<!-- ApplicationController&#45;&gt;FoodsController -->
<g id="edge3" class="edge"><title>ApplicationController&#45;&gt;FoodsController</title>
<path fill="none" stroke="black" d="M157.018,-204.217C140.754,-216.469 123.486,-229.478 107.825,-241.276"/>
</g>
<!-- LocationsController -->
<g id="node6" class="node"><title>LocationsController</title>
<path fill="none" stroke="black" d="M334.066,-219C334.066,-219 438.818,-219 438.818,-219 444.818,-219 450.818,-225 450.818,-231 450.818,-231 450.818,-339 450.818,-339 450.818,-345 444.818,-351 438.818,-351 438.818,-351 334.066,-351 334.066,-351 328.066,-351 322.066,-345 322.066,-339 322.066,-339 322.066,-231 322.066,-231 322.066,-225 328.066,-219 334.066,-219"/>
<text text-anchor="middle" x="386.442" y="-333" font-family="Times,serif" font-size="14.00">LocationsController</text>
<polyline fill="none" stroke="black" points="322.066,-326.2 450.818,-326.2 "/>
<text text-anchor="start" x="330.066" y="-308.2" font-family="Times,serif" font-size="14.00">create</text>
<text text-anchor="start" x="330.066" y="-291.4" font-family="Times,serif" font-size="14.00">index</text>
<text text-anchor="start" x="330.066" y="-274.6" font-family="Times,serif" font-size="14.00">new</text>
<polyline fill="none" stroke="black" points="322.066,-267.8 450.818,-267.8 "/>
<polyline fill="none" stroke="black" points="322.066,-243.8 450.818,-243.8 "/>
<text text-anchor="start" x="330.066" y="-225.8" font-family="Times,serif" font-size="14.00">_layout</text>
</g>
<!-- ApplicationController&#45;&gt;LocationsController -->
<g id="edge4" class="edge"><title>ApplicationController&#45;&gt;LocationsController</title>
<path fill="none" stroke="black" d="M284.182,-204.3C296.55,-214.06 309.562,-224.329 322.004,-234.148"/>
</g>
<!-- MonthsController -->
<g id="node7" class="node"><title>MonthsController</title>
<path fill="none" stroke="black" d="M171.279,-282.04C171.279,-282.04 263.61,-282.04 263.61,-282.04 269.61,-282.04 275.61,-288.04 275.61,-294.04 275.61,-294.04 275.61,-367.64 275.61,-367.64 275.61,-373.64 269.61,-379.64 263.61,-379.64 263.61,-379.64 171.279,-379.64 171.279,-379.64 165.279,-379.64 159.279,-373.64 159.279,-367.64 159.279,-367.64 159.279,-294.04 159.279,-294.04 159.279,-288.04 165.279,-282.04 171.279,-282.04"/>
<text text-anchor="middle" x="217.444" y="-361.64" font-family="Times,serif" font-size="14.00">MonthsController</text>
<polyline fill="none" stroke="black" points="159.279,-354.84 275.61,-354.84 "/>
<polyline fill="none" stroke="black" points="159.279,-330.84 275.61,-330.84 "/>
<polyline fill="none" stroke="black" points="159.279,-306.84 275.61,-306.84 "/>
<text text-anchor="start" x="167.279" y="-288.84" font-family="Times,serif" font-size="14.00">_layout</text>
</g>
<!-- ApplicationController&#45;&gt;MonthsController -->
<g id="edge5" class="edge"><title>ApplicationController&#45;&gt;MonthsController</title>
<path fill="none" stroke="black" d="M220.747,-204.158C220.114,-228.412 219.353,-257.626 218.72,-281.885"/>
</g>
</g>
</svg>
