<?xml version="1.0" encoding="UTF-8" standalone="no"?>
<!DOCTYPE svg PUBLIC "-//W3C//DTD SVG 1.1//EN"
 "http://www.w3.org/Graphics/SVG/1.1/DTD/svg11.dtd">
<!-- Generated by graphviz version 2.32.0 (20140321.2019)
 -->
<!-- Title: models_diagram Pages: 1 -->
<svg width="409pt" height="746pt"
 viewBox="0.00 0.00 409.00 746.00" xmlns="http://www.w3.org/2000/svg" xmlns:xlink="http://www.w3.org/1999/xlink">
<g id="graph0" class="graph" transform="scale(1 1) rotate(0) translate(4 742)">
<title>models_diagram</title>
<polygon fill="white" stroke="white" points="-4,5 -4,-742 406,-742 406,5 -4,5"/>
<!-- _diagram_info -->
<g id="node1" class="node"><title>_diagram_info</title>
<text text-anchor="start" x="7.55029" y="-721" font-family="Times,serif" font-size="13.00">Models diagram</text>
<text text-anchor="start" x="7.55029" y="-705.4" font-family="Times,serif" font-size="13.00">Date: Mar 21 2014 &#45; 16:23</text>
<text text-anchor="start" x="7.55029" y="-689.8" font-family="Times,serif" font-size="13.00">Migration version: 20140321195513</text>
<text text-anchor="start" x="7.55029" y="-674.2" font-family="Times,serif" font-size="13.00">Generated by RailRoady 1.1.1</text>
<text text-anchor="start" x="7.55029" y="-658.6" font-family="Times,serif" font-size="13.00">http://railroady.prestonlee.com</text>
</g>
<!-- Eatable -->
<g id="node2" class="node"><title>Eatable</title>
<path fill="none" stroke="black" d="M144.495,-464.8C144.495,-464.8 253.505,-464.8 253.505,-464.8 259.505,-464.8 265.505,-470.8 265.505,-476.8 265.505,-476.8 265.505,-603.2 265.505,-603.2 265.505,-609.2 259.505,-615.2 253.505,-615.2 253.505,-615.2 144.495,-615.2 144.495,-615.2 138.495,-615.2 132.495,-609.2 132.495,-603.2 132.495,-603.2 132.495,-476.8 132.495,-476.8 132.495,-470.8 138.495,-464.8 144.495,-464.8"/>
<text text-anchor="middle" x="199" y="-597.2" font-family="Times,serif" font-size="14.00">Eatable</text>
<polyline fill="none" stroke="black" points="132.495,-590.4 265.505,-590.4 "/>
<text text-anchor="start" x="140.495" y="-572.4" font-family="Times,serif" font-size="14.00">id :integer</text>
<text text-anchor="start" x="140.495" y="-555.6" font-family="Times,serif" font-size="14.00">food_id :integer</text>
<text text-anchor="start" x="140.495" y="-538.8" font-family="Times,serif" font-size="14.00">location_id :integer</text>
<text text-anchor="start" x="140.495" y="-522" font-family="Times,serif" font-size="14.00">month_id :text</text>
<text text-anchor="start" x="140.495" y="-505.2" font-family="Times,serif" font-size="14.00">description :string</text>
<text text-anchor="start" x="140.495" y="-488.4" font-family="Times,serif" font-size="14.00">created_at :datetime</text>
<text text-anchor="start" x="140.495" y="-471.6" font-family="Times,serif" font-size="14.00">updated_at :datetime</text>
</g>
<!-- Food -->
<g id="node3" class="node"><title>Food</title>
<path fill="none" stroke="black" d="M144.495,-293.2C144.495,-293.2 253.505,-293.2 253.505,-293.2 259.505,-293.2 265.505,-299.2 265.505,-305.2 265.505,-305.2 265.505,-414.8 265.505,-414.8 265.505,-420.8 259.505,-426.8 253.505,-426.8 253.505,-426.8 144.495,-426.8 144.495,-426.8 138.495,-426.8 132.495,-420.8 132.495,-414.8 132.495,-414.8 132.495,-305.2 132.495,-305.2 132.495,-299.2 138.495,-293.2 144.495,-293.2"/>
<text text-anchor="middle" x="199" y="-408.8" font-family="Times,serif" font-size="14.00">Food</text>
<polyline fill="none" stroke="black" points="132.495,-402 265.505,-402 "/>
<text text-anchor="start" x="140.495" y="-384" font-family="Times,serif" font-size="14.00">id :integer</text>
<text text-anchor="start" x="140.495" y="-367.2" font-family="Times,serif" font-size="14.00">title :string</text>
<text text-anchor="start" x="140.495" y="-350.4" font-family="Times,serif" font-size="14.00">image :string</text>
<text text-anchor="start" x="140.495" y="-333.6" font-family="Times,serif" font-size="14.00">description :string</text>
<text text-anchor="start" x="140.495" y="-316.8" font-family="Times,serif" font-size="14.00">created_at :datetime</text>
<text text-anchor="start" x="140.495" y="-300" font-family="Times,serif" font-size="14.00">updated_at :datetime</text>
</g>
<!-- Eatable&#45;&gt;Food -->
<g id="edge1" class="edge"><title>Eatable&#45;&gt;Food</title>
<path fill="none" stroke="#2eb59e" d="M192.265,-456.308C192.235,-450 192.25,-443.65 192.311,-437.385"/>
<ellipse fill="none" stroke="#2eb59e" cx="192.299" cy="-460.543" rx="4" ry="4"/>
<polygon fill="#2eb59e" stroke="#2eb59e" points="192.317,-436.944 196.955,-427.007 192.386,-431.944 192.455,-426.945 192.455,-426.945 192.455,-426.945 192.386,-431.944 187.956,-426.882 192.317,-436.944 192.317,-436.944"/>
</g>
<!-- Location -->
<g id="node4" class="node"><title>Location</title>
<path fill="none" stroke="black" d="M116.495,-0.6C116.495,-0.6 225.505,-0.6 225.505,-0.6 231.505,-0.6 237.505,-6.6 237.505,-12.6 237.505,-12.6 237.505,-105.4 237.505,-105.4 237.505,-111.4 231.505,-117.4 225.505,-117.4 225.505,-117.4 116.495,-117.4 116.495,-117.4 110.495,-117.4 104.495,-111.4 104.495,-105.4 104.495,-105.4 104.495,-12.6 104.495,-12.6 104.495,-6.6 110.495,-0.6 116.495,-0.6"/>
<text text-anchor="middle" x="171" y="-99.4" font-family="Times,serif" font-size="14.00">Location</text>
<polyline fill="none" stroke="black" points="104.495,-92.6 237.505,-92.6 "/>
<text text-anchor="start" x="112.495" y="-74.6" font-family="Times,serif" font-size="14.00">id :integer</text>
<text text-anchor="start" x="112.495" y="-57.8" font-family="Times,serif" font-size="14.00">title :string</text>
<text text-anchor="start" x="112.495" y="-41" font-family="Times,serif" font-size="14.00">description :string</text>
<text text-anchor="start" x="112.495" y="-24.2" font-family="Times,serif" font-size="14.00">created_at :datetime</text>
<text text-anchor="start" x="112.495" y="-7.4" font-family="Times,serif" font-size="14.00">updated_at :datetime</text>
</g>
<!-- Eatable&#45;&gt;Location -->
<g id="edge2" class="edge"><title>Eatable&#45;&gt;Location</title>
<path fill="none" stroke="#dbe821" d="M128.186,-460.442C122.369,-449.994 117.423,-439.058 114,-428 82.5021,-326.243 111.707,-202.436 138.77,-127.498"/>
<ellipse fill="none" stroke="#dbe821" cx="130.333" cy="-464.135" rx="4.00002" ry="4.00002"/>
<polygon fill="#dbe821" stroke="#dbe821" points="138.924,-127.084 146.617,-119.27 140.66,-122.395 142.397,-117.707 142.397,-117.707 142.397,-117.707 140.66,-122.395 138.177,-116.144 138.924,-127.084 138.924,-127.084"/>
</g>
<!-- Month -->
<g id="node5" class="node"><title>Month</title>
<path fill="none" stroke="black" d="M220.495,-155C220.495,-155 329.505,-155 329.505,-155 335.505,-155 341.505,-161 341.505,-167 341.505,-167 341.505,-243 341.505,-243 341.505,-249 335.505,-255 329.505,-255 329.505,-255 220.495,-255 220.495,-255 214.495,-255 208.495,-249 208.495,-243 208.495,-243 208.495,-167 208.495,-167 208.495,-161 214.495,-155 220.495,-155"/>
<text text-anchor="middle" x="275" y="-237" font-family="Times,serif" font-size="14.00">Month</text>
<polyline fill="none" stroke="black" points="208.495,-230.2 341.505,-230.2 "/>
<text text-anchor="start" x="216.495" y="-212.2" font-family="Times,serif" font-size="14.00">id :integer</text>
<text text-anchor="start" x="216.495" y="-195.4" font-family="Times,serif" font-size="14.00">title :string</text>
<text text-anchor="start" x="216.495" y="-178.6" font-family="Times,serif" font-size="14.00">created_at :datetime</text>
<text text-anchor="start" x="216.495" y="-161.8" font-family="Times,serif" font-size="14.00">updated_at :datetime</text>
</g>
<!-- Eatable&#45;&gt;Month -->
<g id="edge3" class="edge"><title>Eatable&#45;&gt;Month</title>
<path fill="none" stroke="#72565e" d="M261.564,-457.479C266.59,-447.925 270.912,-438.006 274,-428 290.432,-374.759 288.624,-310.854 283.937,-265.308"/>
<ellipse fill="none" stroke="#72565e" cx="259.518" cy="-461.204" rx="4.00002" ry="4.00002"/>
<polygon fill="#72565e" stroke="#72565e" points="283.93,-265.241 287.303,-254.807 283.38,-260.271 282.831,-255.301 282.831,-255.301 282.831,-255.301 283.38,-260.271 278.358,-255.796 283.93,-265.241 283.93,-265.241"/>
</g>
<!-- Food&#45;&gt;Eatable -->
<g id="edge5" class="edge"><title>Food&#45;&gt;Eatable</title>
<path fill="none" stroke="#32ebcd" d="M205.664,-435.033C205.739,-441.473 205.765,-448.02 205.742,-454.534"/>
<ellipse fill="none" stroke="#32ebcd" cx="205.604" cy="-430.944" rx="4" ry="4"/>
<polygon fill="#32ebcd" stroke="#32ebcd" points="205.742,-454.544 201.169,-464.51 205.706,-459.543 205.669,-464.543 205.669,-464.543 205.669,-464.543 205.706,-459.543 210.169,-464.576 205.742,-454.544 205.742,-454.544"/>
</g>
<!-- Food&#45;&gt;Location -->
<g id="edge6" class="edge"><title>Food&#45;&gt;Location</title>
<path fill="none" stroke="#27ad0b" d="M186.137,-284.871C180.476,-236.769 174.705,-174.569 171.588,-127.782"/>
<ellipse fill="none" stroke="#27ad0b" cx="186.636" cy="-289.041" rx="4.00001" ry="4.00001"/>
<polygon fill="#27ad0b" stroke="#27ad0b" points="171.585,-127.723 175.437,-117.456 171.266,-122.733 170.946,-117.744 170.946,-117.744 170.946,-117.744 171.266,-122.733 166.456,-118.031 171.585,-127.723 171.585,-127.723"/>
</g>
<!-- Food&#45;&gt;Month -->
<g id="edge7" class="edge"><title>Food&#45;&gt;Month</title>
<path fill="none" stroke="#afb503" d="M228.83,-285.367C232.298,-278.344 235.857,-271.29 239.391,-264.44"/>
<ellipse fill="none" stroke="#afb503" cx="226.957" cy="-289.19" rx="4.00002" ry="4.00002"/>
<polygon fill="#afb503" stroke="#afb503" points="239.56,-264.116 248.173,-257.329 241.871,-259.683 244.182,-255.249 244.182,-255.249 244.182,-255.249 241.871,-259.683 240.192,-253.169 239.56,-264.116 239.56,-264.116"/>
</g>
<!-- Location&#45;&gt;Eatable -->
<g id="edge10" class="edge"><title>Location&#45;&gt;Eatable</title>
<path fill="none" stroke="#f98c86" d="M152.465,-125.673C130.188,-200.413 100.245,-325.412 132,-428 134.926,-437.454 138.966,-446.82 143.63,-455.867"/>
<ellipse fill="none" stroke="#f98c86" cx="153.712" cy="-121.536" rx="4.00001" ry="4.00001"/>
<polygon fill="#f98c86" stroke="#f98c86" points="143.71,-456.013 144.53,-466.948 146.097,-460.407 148.484,-464.8 148.484,-464.8 148.484,-464.8 146.097,-460.407 152.438,-462.651 143.71,-456.013 143.71,-456.013"/>
</g>
<!-- Location&#45;&gt;Food -->
<g id="edge9" class="edge"><title>Location&#45;&gt;Food</title>
<path fill="none" stroke="#bc1e1a" d="M182.881,-125.919C188.521,-172.293 194.43,-234.477 197.845,-282.952"/>
<ellipse fill="none" stroke="#bc1e1a" cx="182.36" cy="-121.713" rx="4.00001" ry="4.00001"/>
<polygon fill="#bc1e1a" stroke="#bc1e1a" points="197.85,-283.036 194.041,-293.319 198.19,-288.025 198.53,-293.013 198.53,-293.013 198.53,-293.013 198.19,-288.025 203.02,-292.707 197.85,-283.036 197.85,-283.036"/>
</g>
<!-- Month&#45;&gt;Food -->
<g id="edge12" class="edge"><title>Month&#45;&gt;Food</title>
<path fill="none" stroke="#72405a" d="M253.436,-262.582C250.179,-269.433 246.731,-276.513 243.212,-283.581"/>
<ellipse fill="none" stroke="#72405a" cx="255.186" cy="-258.868" rx="4.00002" ry="4.00002"/>
<polygon fill="#72405a" stroke="#72405a" points="243.079,-283.847 234.567,-290.761 240.834,-288.314 238.588,-292.782 238.588,-292.782 238.588,-292.782 240.834,-288.314 242.609,-294.803 243.079,-283.847 243.079,-283.847"/>
</g>
<!-- Month&#45;&gt;Location -->
<g id="edge13" class="edge"><title>Month&#45;&gt;Location</title>
<path fill="none" stroke="#912c51" d="M234.778,-148.308C229.441,-140.918 223.93,-133.287 218.485,-125.749"/>
<ellipse fill="none" stroke="#912c51" cx="237.158" cy="-151.603" rx="4.00002" ry="4.00002"/>
<polygon fill="#912c51" stroke="#912c51" points="218.469,-125.727 216.263,-114.985 215.542,-121.673 212.614,-117.62 212.614,-117.62 212.614,-117.62 215.542,-121.673 208.966,-120.255 218.469,-125.727 218.469,-125.727"/>
</g>
<!-- ActiveRecord::Base -->
<g id="node6" class="node"><title>ActiveRecord::Base</title>
<ellipse fill="none" stroke="black" cx="313" cy="-695" rx="88.2033" ry="18"/>
<text text-anchor="middle" x="313" y="-689.4" font-family="Times,serif" font-size="14.00">ActiveRecord::Base</text>
</g>
<!-- ActiveRecord::Base&#45;&gt;Eatable -->
<g id="edge4" class="edge"><title>ActiveRecord::Base&#45;&gt;Eatable</title>
<path fill="none" stroke="black" d="M300.364,-677.042C289.06,-661.87 271.663,-638.522 254.454,-615.425"/>
</g>
<!-- ActiveRecord::Base&#45;&gt;Food -->
<g id="edge8" class="edge"><title>ActiveRecord::Base&#45;&gt;Food</title>
<path fill="none" stroke="black" d="M312.74,-676.809C311.591,-637.532 305.523,-538.835 274,-464 268.676,-451.361 261.532,-438.803 253.761,-427.027"/>
</g>
<!-- ActiveRecord::Base&#45;&gt;Location -->
<g id="edge11" class="edge"><title>ActiveRecord::Base&#45;&gt;Location</title>
<path fill="none" stroke="black" d="M320.701,-676.927C351.318,-606.274 457.659,-332.138 350,-154 325.672,-113.745 277.768,-89.8776 237.636,-76.2709"/>
</g>
<!-- ActiveRecord::Base&#45;&gt;Month -->
<g id="edge14" class="edge"><title>ActiveRecord::Base&#45;&gt;Month</title>
<path fill="none" stroke="black" d="M313.332,-676.652C314.159,-620.644 314.912,-439.698 294,-292 292.307,-280.04 289.849,-267.271 287.26,-255.333"/>
</g>
</g>
</svg>
