<?xml version="1.0" encoding="UTF-8" standalone="no"?>
<!DOCTYPE svg PUBLIC "-//W3C//DTD SVG 1.1//EN"
 "http://www.w3.org/Graphics/SVG/1.1/DTD/svg11.dtd">
<!-- Generated by graphviz version 2.32.0 (20140321.2019)
 -->
<!-- Title: models_diagram Pages: 1 -->
<svg width="409pt" height="382pt"
 viewBox="0.00 0.00 409.00 382.00" xmlns="http://www.w3.org/2000/svg" xmlns:xlink="http://www.w3.org/1999/xlink">
<g id="graph0" class="graph" transform="scale(1 1) rotate(0) translate(4 378)">
<title>models_diagram</title>
<polygon fill="white" stroke="white" points="-4,5 -4,-378 406,-378 406,5 -4,5"/>
<!-- _diagram_info -->
<g id="node1" class="node"><title>_diagram_info</title>
<text text-anchor="start" x="7.55029" y="-357" font-family="Times,serif" font-size="13.00">Models diagram</text>
<text text-anchor="start" x="7.55029" y="-341.4" font-family="Times,serif" font-size="13.00">Date: Mar 21 2014 &#45; 16:23</text>
<text text-anchor="start" x="7.55029" y="-325.8" font-family="Times,serif" font-size="13.00">Migration version: 20140321195513</text>
<text text-anchor="start" x="7.55029" y="-310.2" font-family="Times,serif" font-size="13.00">Generated by RailRoady 1.1.1</text>
<text text-anchor="start" x="7.55029" y="-294.6" font-family="Times,serif" font-size="13.00">http://railroady.prestonlee.com</text>
</g>
<!-- Eatable -->
<g id="node2" class="node"><title>Eatable</title>
<ellipse fill="none" stroke="black" cx="226" cy="-234" rx="39.4829" ry="18"/>
<text text-anchor="middle" x="226" y="-228.4" font-family="Times,serif" font-size="14.00">Eatable</text>
</g>
<!-- Food -->
<g id="node3" class="node"><title>Food</title>
<ellipse fill="none" stroke="black" cx="235" cy="-162" rx="30.3409" ry="18"/>
<text text-anchor="middle" x="235" y="-156.4" font-family="Times,serif" font-size="14.00">Food</text>
</g>
<!-- Eatable&#45;&gt;Food -->
<g id="edge1" class="edge"><title>Eatable&#45;&gt;Food</title>
<path fill="none" stroke="#142d85" d="M222.726,-207.861C223.18,-202.032 223.953,-195.806 224.954,-189.905"/>
<ellipse fill="none" stroke="#142d85" cx="222.508" cy="-212.06" rx="4" ry="4"/>
<polygon fill="#142d85" stroke="#142d85" points="225.016,-189.594 231.392,-180.673 225.998,-184.692 226.98,-179.789 226.98,-179.789 226.98,-179.789 225.998,-184.692 222.567,-178.905 225.016,-189.594 225.016,-189.594"/>
</g>
<!-- Location -->
<g id="node4" class="node"><title>Location</title>
<ellipse fill="none" stroke="black" cx="223" cy="-18" rx="45.0398" ry="18"/>
<text text-anchor="middle" x="223" y="-12.4" font-family="Times,serif" font-size="14.00">Location</text>
</g>
<!-- Eatable&#45;&gt;Location -->
<g id="edge2" class="edge"><title>Eatable&#45;&gt;Location</title>
<path fill="none" stroke="#fe8017" d="M201.855,-211.848C195.159,-202.578 189.051,-191.26 186,-180 173.29,-133.097 190.122,-76.885 205.35,-44.8165"/>
<ellipse fill="none" stroke="#fe8017" cx="204.344" cy="-215.047" rx="4.00002" ry="4.00002"/>
<polygon fill="#fe8017" stroke="#fe8017" points="205.463,-44.5933 214.003,-37.7134 207.727,-40.1348 209.99,-35.6764 209.99,-35.6764 209.99,-35.6764 207.727,-40.1348 205.977,-33.6394 205.463,-44.5933 205.463,-44.5933"/>
</g>
<!-- Month -->
<g id="node5" class="node"><title>Month</title>
<ellipse fill="none" stroke="black" cx="297" cy="-90" rx="36.1907" ry="18"/>
<text text-anchor="middle" x="297" y="-84.4" font-family="Times,serif" font-size="14.00">Month</text>
</g>
<!-- Eatable&#45;&gt;Month -->
<g id="edge3" class="edge"><title>Eatable&#45;&gt;Month</title>
<path fill="none" stroke="#8cf014" d="M249.788,-211.57C258.519,-202.582 267.778,-191.542 274,-180 284.382,-160.741 290.24,-136.586 293.443,-118.301"/>
<ellipse fill="none" stroke="#8cf014" cx="246.71" cy="-214.626" rx="4.00002" ry="4.00002"/>
<polygon fill="#8cf014" stroke="#8cf014" points="293.463,-118.171 299.48,-109.003 294.249,-113.233 295.036,-108.295 295.036,-108.295 295.036,-108.295 294.249,-113.233 290.592,-107.588 293.463,-118.171 293.463,-118.171"/>
</g>
<!-- Food&#45;&gt;Eatable -->
<g id="edge5" class="edge"><title>Food&#45;&gt;Eatable</title>
<path fill="none" stroke="#720c22" d="M238.258,-188.338C237.805,-194.08 237.043,-200.198 236.061,-206.005"/>
<ellipse fill="none" stroke="#720c22" cx="238.477" cy="-184.27" rx="4" ry="4"/>
<polygon fill="#720c22" stroke="#720c22" points="236.013,-206.248 229.644,-215.175 235.035,-211.152 234.057,-216.055 234.057,-216.055 234.057,-216.055 235.035,-211.152 238.47,-216.935 236.013,-206.248 236.013,-206.248"/>
</g>
<!-- Food&#45;&gt;Location -->
<g id="edge6" class="edge"><title>Food&#45;&gt;Location</title>
<path fill="none" stroke="#cff621" d="M227.638,-136.233C223.616,-111.188 220.285,-72.5632 219.859,-46.5619"/>
<ellipse fill="none" stroke="#cff621" cx="228.333" cy="-140.213" rx="4.00001" ry="4.00001"/>
<polygon fill="#cff621" stroke="#cff621" points="219.859,-46.2678 224.36,-36.2685 219.859,-41.2678 219.86,-36.2678 219.86,-36.2678 219.86,-36.2678 219.859,-41.2678 215.36,-36.2671 219.859,-46.2678 219.859,-46.2678"/>
</g>
<!-- Food&#45;&gt;Month -->
<g id="edge7" class="edge"><title>Food&#45;&gt;Month</title>
<path fill="none" stroke="#bd87b0" d="M248.971,-138.02C255.561,-130.006 263.527,-121.034 271.107,-113.094"/>
<ellipse fill="none" stroke="#bd87b0" cx="246.353" cy="-141.289" rx="4.00002" ry="4.00002"/>
<polygon fill="#bd87b0" stroke="#bd87b0" points="271.488,-112.706 281.705,-108.723 274.99,-109.138 278.493,-105.57 278.493,-105.57 278.493,-105.57 274.99,-109.138 275.282,-102.418 271.488,-112.706 271.488,-112.706"/>
</g>
<!-- Location&#45;&gt;Eatable -->
<g id="edge10" class="edge"><title>Location&#45;&gt;Eatable</title>
<path fill="none" stroke="#9b17c6" d="M218.181,-44.0922C208.379,-76.0332 191.194,-132.742 204,-180 206.552,-189.419 211.244,-198.879 215.806,-207.147"/>
<ellipse fill="none" stroke="#9b17c6" cx="219.438" cy="-39.973" rx="4.00001" ry="4.00001"/>
<polygon fill="#9b17c6" stroke="#9b17c6" points="215.843,-207.212 216.868,-218.13 218.312,-211.56 220.781,-215.908 220.781,-215.908 220.781,-215.908 218.312,-211.56 224.694,-213.686 215.843,-207.212 215.843,-207.212"/>
</g>
<!-- Location&#45;&gt;Food -->
<g id="edge9" class="edge"><title>Location&#45;&gt;Food</title>
<path fill="none" stroke="#30cf9f" d="M230.425,-44.1617C234.431,-69.2943 237.737,-107.812 238.145,-133.679"/>
<ellipse fill="none" stroke="#30cf9f" cx="229.727" cy="-40.1305" rx="4.00001" ry="4.00001"/>
<polygon fill="#30cf9f" stroke="#30cf9f" points="238.145,-133.871 233.637,-143.868 238.141,-138.871 238.137,-143.871 238.137,-143.871 238.137,-143.871 238.141,-138.871 242.637,-143.875 238.145,-133.871 238.145,-133.871"/>
</g>
<!-- Month&#45;&gt;Food -->
<g id="edge12" class="edge"><title>Month&#45;&gt;Food</title>
<path fill="none" stroke="#db66d7" d="M282.832,-114.22C275.972,-122.548 267.652,-131.883 259.835,-140.011"/>
<ellipse fill="none" stroke="#db66d7" cx="285.707" cy="-110.632" rx="4.00002" ry="4.00002"/>
<polygon fill="#db66d7" stroke="#db66d7" points="259.785,-140.061 249.554,-144.006 256.269,-143.615 252.753,-147.17 252.753,-147.17 252.753,-147.17 256.269,-143.615 255.952,-150.335 259.785,-140.061 259.785,-140.061"/>
</g>
<!-- Month&#45;&gt;Location -->
<g id="edge13" class="edge"><title>Month&#45;&gt;Location</title>
<path fill="none" stroke="#628297" d="M274.949,-68.1406C266.238,-59.901 256.199,-50.4045 247.282,-41.9694"/>
<ellipse fill="none" stroke="#628297" cx="278.037" cy="-71.0622" rx="4.00002" ry="4.00002"/>
<polygon fill="#628297" stroke="#628297" points="247.061,-41.7602 242.888,-31.6191 243.428,-38.3242 239.796,-34.8882 239.796,-34.8882 239.796,-34.8882 243.428,-38.3242 236.704,-38.1573 247.061,-41.7602 247.061,-41.7602"/>
</g>
<!-- ActiveRecord::Base -->
<g id="node6" class="node"><title>ActiveRecord::Base</title>
<ellipse fill="none" stroke="black" cx="313" cy="-331" rx="88.2033" ry="18"/>
<text text-anchor="middle" x="313" y="-325.4" font-family="Times,serif" font-size="14.00">ActiveRecord::Base</text>
</g>
<!-- ActiveRecord::Base&#45;&gt;Eatable -->
<g id="edge4" class="edge"><title>ActiveRecord::Base&#45;&gt;Eatable</title>
<path fill="none" stroke="black" d="M297.446,-313.016C281.317,-295.404 256.299,-268.085 240.551,-250.889"/>
</g>
<!-- ActiveRecord::Base&#45;&gt;Food -->
<g id="edge8" class="edge"><title>ActiveRecord::Base&#45;&gt;Food</title>
<path fill="none" stroke="black" d="M308.854,-312.725C302.963,-289.798 290.969,-248.436 274,-216 266.904,-202.436 256.551,-188.55 248.295,-178.396"/>
</g>
<!-- ActiveRecord::Base&#45;&gt;Location -->
<g id="edge11" class="edge"><title>ActiveRecord::Base&#45;&gt;Location</title>
<path fill="none" stroke="black" d="M321.829,-312.911C343.214,-268.9 392.443,-149.686 342,-72 324.88,-45.6341 291.268,-32.2747 264.121,-25.5707"/>
</g>
<!-- ActiveRecord::Base&#45;&gt;Month -->
<g id="edge14" class="edge"><title>ActiveRecord::Base&#45;&gt;Month</title>
<path fill="none" stroke="black" d="M311.849,-312.812C308.897,-268.714 301.081,-151.958 298.14,-108.033"/>
</g>
</g>
</svg>
